<?xml version="1.0" encoding="UTF-8"?>
<!-- Generator: visioncortex VTracer 0.6.4 -->
<svg version="1.1" xmlns="http://www.w3.org/2000/svg" width="150" height="150">
<path d="M0 0 C49.5 0 99 0 150 0 C150 49.5 150 99 150 150 C100.5 150 51 150 0 150 C0 100.5 0 51 0 0 Z " fill="#010000" transform="translate(0,0)"/>
<path d="M0 0 C0 0.33 0 0.66 0 1 C-1.89 1.12 -1.89 1.12 -3.81 1.25 C-8.39 1.58 -8.39 1.58 -11 6 C-8.69 6 -6.38 6 -4 6 C-4 6.99 -4 7.98 -4 9 C-2.68 9.33 -1.36 9.66 0 10 C0.5 10.99 0.5 10.99 1 12 C1.99 12.33 2.98 12.66 4 13 C4.5 14.98 4.5 14.98 5 17 C8.98 17.57 8.98 17.57 13.75 17.5 C22.3 17.78 29.1 18.69 37 22 C38 27 38 27 38 28 C38.92 30.58 38.92 30.58 42.88 30 C47 30 47 30 50 32 C49.67 33.32 49.34 34.64 49 36 C49.78 38.3 49.78 38.3 52 38 C52 47.28 46.96 48.63 39 52.31 C34.19 54.9 32.27 56.82 29 61 C24.41 63.93 22.75 64 17 64 C16.91 65.67 16.91 65.67 16.81 67.38 C16 71 16 71 11 73 C5.68 73.4 1.09 72.61 -4 71 C-4 70.34 -4 69.68 -4 69 C-4.99 68.01 -5.98 67.02 -7 66 C-7.44 62.34 -7.78 58.68 -8 55 C-8.66 55 -9.32 55 -10 55 C-10.66 54.01 -11.32 53.02 -12 52 C-13.32 51.34 -14.64 50.68 -16 50 C-16 48.68 -16 47.36 -16 46 C-16.66 46 -17.32 46 -18 46 C-17 41 -17 41 -16 39 C-17.67 40.02 -17.67 40.02 -19.38 41.06 C-23 43 -23 43 -25 42 C-24.67 41.34 -24.34 40.68 -24 40 C-24.66 40 -25.32 40 -26 40 C-26.33 40.99 -26.66 41.98 -27 43 C-33.41 44.78 -33.41 44.78 -37 40 C-37.42 35.31 -37.14 33.28 -35 29 C-34.92 26.33 -34.92 23.67 -35 21 C-35 18 -35 18 -33 15 C-32.01 15 -31.02 15 -30 15 C-30 13.35 -30 11.7 -30 10 C-28 8 -28 8 -24.06 6.69 C-19.48 5.26 -19.48 5.26 -17 0 C-10.59 -2.57 -6.25 -3.12 0 0 Z " fill="#716B70" transform="translate(70,41)"/>
<path d="M0 0 C1.65 0 3.3 0 5 0 C4.67 1.65 4.34 3.3 4 5 C4.66 4.01 5.32 3.02 6 2 C9 3 9 3 10 6 C10 4.68 10 3.36 10 2 C13.44 1.69 13.44 1.69 17 2 C18 7 18 7 18 8 C18.92 10.58 18.92 10.58 22.88 10 C27 10 27 10 30 12 C29.67 13.32 29.34 14.64 29 16 C29.78 18.3 29.78 18.3 32 18 C32 27.28 26.96 28.63 19 32.31 C14.23 34.88 12.18 36.79 9 41 C5 43 5 43 2 43 C2.04 41.87 2.08 40.73 2.12 39.56 C2.52 35.89 2.52 35.89 0 35 C-1.98 35.5 -1.98 35.5 -4 36 C-2.68 36.33 -1.36 36.66 0 37 C-2 41 -2 41 -6 41 C-11.03 34.29 -9.22 29.28 -6.56 21.81 C-4.04 14.72 -3.25 8.51 -3 1 C-2.01 1.33 -1.02 1.66 0 2 C0 1.34 0 0.68 0 0 Z " fill="#D9D3D3" transform="translate(90,61)"/>
<path d="M0 0 C5 1 5 1 7 4 C7.58 9.26 6.68 13.26 5 18.19 C2.4 26.1 1.15 34.31 5 42 C6.65 41.34 8.3 40.68 10 40 C9.12 37.65 9.12 37.65 6 37 C7 35 7 35 12 35 C15.03 38.03 14.13 40.89 14 45 C12.02 45 10.04 45 8 45 C7.94 46.11 7.88 47.23 7.81 48.38 C7 52 7 52 2 54 C-3.32 54.4 -7.91 53.61 -13 52 C-13 51.34 -13 50.68 -13 50 C-13.99 49.01 -14.98 48.02 -16 47 C-16.44 43.34 -16.78 39.68 -17 36 C-17.66 36 -18.32 36 -19 36 C-23 30.71 -23 30.71 -23 27 C-20 26 -20 26 -16 28 C-13.4 28.3 -13.4 28.3 -12 24 C-9 19 -9 19 -7 19 C-7 18.01 -7 17.02 -7 16 C-5.68 14.68 -4.36 13.36 -3 12 C-1.76 7.48 -1.76 7.48 -1 3 C-0.67 2.01 -0.34 1.02 0 0 Z " fill="#37AEC3" transform="translate(79,60)"/>
<path d="M0 0 C0 0.33 0 0.66 0 1 C-1.89 1.12 -1.89 1.12 -3.81 1.25 C-8.39 1.58 -8.39 1.58 -11 6 C-8.69 6 -6.38 6 -4 6 C-4 6.99 -4 7.98 -4 9 C-3.34 9.66 -2.68 10.32 -2 11 C-2.66 11 -3.32 11 -4 11 C-4 11.99 -4 12.98 -4 14 C-4.99 14 -5.98 14 -7 14 C-6.67 15.32 -6.34 16.64 -6 18 C-10 21 -10 21 -12 21 C-14.17 21.83 -14.17 21.83 -15 24 C-15.66 23.67 -16.32 23.34 -17 23 C-18.98 23 -20.96 23 -23 23 C-22.67 24.65 -22.34 26.3 -22 28 C-27 30 -27 30 -32 30 C-35.6 24.48 -37.15 20.54 -33 15 C-32.01 15 -31.02 15 -30 15 C-30 13.35 -30 11.7 -30 10 C-28 8 -28 8 -24.06 6.69 C-19.48 5.26 -19.48 5.26 -17 0 C-10.59 -2.57 -6.25 -3.12 0 0 Z " fill="#84615B" transform="translate(70,41)"/>
<path d="M0 0 C1 2 1 2 0 4 C0.99 4.33 1.98 4.66 3 5 C-0.27 8.27 -3.69 6.62 -8 6 C-8.97 12.43 -8.97 12.43 -6 17 C-7 21 -7 21 -12 24 C-12.66 23.67 -13.32 23.34 -14 23 C-13.67 22.34 -13.34 21.68 -13 21 C-13.66 21 -14.32 21 -15 21 C-15.33 21.99 -15.66 22.98 -16 24 C-22.41 25.78 -22.41 25.78 -26 21 C-26.62 15.55 -25.39 11.88 -23 7 C-22.01 8.48 -22.01 8.48 -21 10 C-16.4 9.76 -16.4 9.76 -12 9 C-12.33 7.02 -12.66 5.04 -13 3 C-10 3 -7 3 -4 3 C-2.68 2.01 -1.36 1.02 0 0 Z " fill="#DACED0" transform="translate(59,60)"/>
<path d="M0 0 C1.32 0.33 2.64 0.66 4 1 C3.01 2.32 2.02 3.64 1 5 C1.99 5 2.98 5 4 5 C4 5.99 4 6.98 4 8 C3.34 8 2.68 8 2 8 C2.66 9.98 3.32 11.96 4 14 C3.34 14 2.68 14 2 14 C2 13.01 2 12.02 2 11 C-0.97 10.5 -0.97 10.5 -4 10 C-4 9.01 -4 8.02 -4 7 C-4.66 7 -5.32 7 -6 7 C-5.67 8.65 -5.34 10.3 -5 12 C-5.33 13.32 -5.66 14.64 -6 16 C-8 16 -8 16 -9 14 C-9.66 15.32 -10.32 16.64 -11 18 C-10.34 18 -9.68 18 -9 18 C-8.67 19.32 -8.34 20.64 -8 22 C-10.31 22.66 -12.62 23.32 -15 24 C-15 22.68 -15 21.36 -15 20 C-13.68 20.66 -12.36 21.32 -11 22 C-12.32 20.68 -13.64 19.36 -15 18 C-15.66 18.33 -16.32 18.66 -17 19 C-19 18 -19 18 -20 14 C-17 10 -17 10 -14 10 C-14 8.35 -14 6.7 -14 5 C-10.22 1.22 -6.21 1 -1 1 C-0.67 1.66 -0.34 2.32 0 3 C0 2.01 0 1.02 0 0 Z " fill="#CEBFBE" transform="translate(54,46)"/>
<path d="M0 0 C0.66 0 1.32 0 2 0 C2 6.27 0.9 8.64 -2 14 C-3.12 17.36 -3.13 19.96 -3.12 23.5 C-3.13 24.64 -3.13 25.79 -3.13 26.97 C-3.14 30.05 -3.14 30.05 -2 33 C-3.98 33 -5.96 33 -8 33 C-8 32.34 -8 31.68 -8 31 C-8.99 30.01 -9.98 29.02 -11 28 C-11.44 24.34 -11.78 20.68 -12 17 C-12.66 17 -13.32 17 -14 17 C-14.33 16.01 -14.66 15.02 -15 14 C-13.8 13.48 -12.61 12.97 -11.38 12.44 C-5.99 9.44 -1.99 5.97 0 0 Z " fill="#637E87" transform="translate(74,79)"/>
<path d="M0 0 C0.66 0.33 1.32 0.66 2 1 C1.67 1.66 1.34 2.32 1 3 C1.99 3 2.98 3 4 3 C3.67 3.99 3.34 4.98 3 6 C2.01 6 1.02 6 0 6 C0.45 10.63 0.45 10.63 2 12 C2.51 20.19 2.69 27.96 -2 35 C-5 35 -5 35 -6 33 C-6.72 15.36 -6.72 15.36 0 12 C-2.97 11.5 -2.97 11.5 -6 11 C-5.01 9.68 -4.02 8.36 -3 7 C-3 5.68 -3 4.36 -3 3 C-2.01 3 -1.02 3 0 3 C0 2.01 0 1.02 0 0 Z " fill="#E6DEDE" transform="translate(66,52)"/>
<path d="M0 0 C2.31 0.66 4.62 1.32 7 2 C6 4 6 4 4 4 C2.81 8.46 2.02 12.78 1.56 17.38 C1 21 1 21 -2 24 C-2.99 24 -3.98 24 -5 24 C-5 22.35 -5 20.7 -5 19 C-5.33 18.67 -5.66 18.34 -6 18 C-6 17.01 -6 16.02 -6 15 C-6.99 14.67 -7.98 14.34 -9 14 C-9.38 9 -9.38 9 -9 4 C-5.31 2.77 -2.8 3.44 1 4 C1.33 3.67 1.66 3.34 2 3 C1.34 2.67 0.68 2.34 0 2 C0 1.34 0 0.68 0 0 Z " fill="#9A8588" transform="translate(59,62)"/>
<path d="M0 0 C0.19 1.86 0.19 1.86 0.38 3.75 C0.79 8.1 0.79 8.1 3 12 C4.65 11.34 6.3 10.68 8 10 C7.12 7.65 7.12 7.65 4 7 C5 5 5 5 10 5 C13.03 8.03 12.13 10.89 12 15 C10.02 15 8.04 15 6 15 C5.94 16.11 5.88 17.23 5.81 18.38 C5 22 5 22 0 24 C-0.63 21.3 -5.4 0 0 0 Z " fill="#79787B" transform="translate(81,90)"/>
</svg>
