<?xml version="1.0" encoding="UTF-8"?>
<!-- Generator: visioncortex VTracer 0.6.4 -->
<svg version="1.1" xmlns="http://www.w3.org/2000/svg" width="150" height="150">
<path d="M0 0 C49.5 0 99 0 150 0 C150 49.5 150 99 150 150 C100.5 150 51 150 0 150 C0 100.5 0 51 0 0 Z " fill="#000000" transform="translate(0,0)"/>
<path d="M0 0 C3.63 0 7.26 0 11 0 C11 0.66 11 1.32 11 2 C12.32 2.33 13.64 2.66 15 3 C15 3.99 15 4.98 15 6 C11.7 6 8.4 6 5 6 C5 6.99 5 7.98 5 9 C7.31 9 9.62 9 12 9 C12.06 9.56 12.12 10.11 12.19 10.69 C12.91 13.28 12.91 13.28 15.56 15.56 C16.37 16.37 17.17 17.17 18 18 C18 18.99 18 19.98 18 21 C20.94 21.03 23.87 21.05 26.81 21.06 C27.65 21.07 28.48 21.08 29.34 21.09 C30.54 21.09 30.54 21.09 31.77 21.1 C32.88 21.11 32.88 21.11 34.01 21.11 C36.21 21.08 36.21 21.08 39 20 C39.43 20.62 39.87 21.24 40.31 21.88 C44.39 25.1 48.94 25.34 54 26 C54.12 31.75 54.12 31.75 53 34 C54.99 33.93 56.97 33.87 58.96 33.8 C61 34 61 34 64 36 C63.67 37.32 63.34 38.64 63 40 C64.48 40.99 64.48 40.99 66 42 C66.39 45.08 66.64 47.09 64.81 49.69 C61.87 51.82 58.89 53.58 55.59 55.12 C50.46 57.54 47.43 59.39 44 64 C39.87 67.16 36.24 68.51 31 68 C30.85 69.67 30.85 69.67 30.69 71.38 C30.46 72.57 30.23 73.77 30 75 C26.84 77.11 26.05 77.25 22.44 77.19 C21.26 77.18 21.26 77.18 20.06 77.17 C18 77 18 77 16 76 C13.7 75.81 11.4 75.68 9.09 75.57 C7 75 7 75 5.7 73.32 C4.83 70.42 5.02 68.24 5.38 65.25 C5.54 63.77 5.54 63.77 5.71 62.27 C5.81 61.52 5.9 60.77 6 60 C5.34 59.67 4.68 59.34 4 59 C4 58.34 4 57.68 4 57 C3.01 57 2.02 57 1 57 C1 56.34 1 55.68 1 55 C0.34 55 -0.32 55 -1 55 C-2.6 51.5 -3.31 48.85 -3 45 C-2.67 44.34 -2.34 43.68 -2 43 C-2.69 43.36 -3.37 43.72 -4.08 44.09 C-4.98 44.56 -5.88 45.02 -6.81 45.5 C-7.71 45.96 -8.6 46.43 -9.52 46.91 C-12 48 -12 48 -15 48 C-15.83 48.08 -16.65 48.16 -17.5 48.25 C-20 48 -20 48 -21.81 46.44 C-23.43 43.12 -23.33 40.65 -23 37 C-22.67 36.36 -22.34 35.72 -22 35.06 C-20.4 31.76 -20.88 28.65 -21 25 C-21 22 -21 22 -19 19 C-18.01 19 -17.02 19 -16 19 C-16.04 18.22 -16.08 17.43 -16.12 16.62 C-16 14 -16 14 -14 12 C-12.01 11.6 -10.01 11.26 -8 11 C-7.86 10.22 -7.71 9.43 -7.56 8.62 C-7 6 -7 6 -6 4 C-5.01 4 -4.02 4 -3 4 C-3 3.34 -3 2.68 -3 2 C-2.01 2 -1.02 2 0 2 C0 1.34 0 0.68 0 0 Z " fill="#2B7D8E" transform="translate(56,37)"/>
<path d="M0 0 C3.63 0 7.26 0 11 0 C11 0.66 11 1.32 11 2 C12.32 2.33 13.64 2.66 15 3 C15 3.99 15 4.98 15 6 C11.7 6 8.4 6 5 6 C5 6.99 5 7.98 5 9 C7.31 9 9.62 9 12 9 C12.06 9.56 12.12 10.11 12.19 10.69 C12.9 13.27 12.9 13.27 15.56 15.44 C18 18 18 18 18.31 20.81 C18.21 21.53 18.11 22.26 18 23 C18.66 23 19.32 23 20 23 C20.16 31.06 20.16 31.06 19 35 C18.01 35.5 18.01 35.5 17 36 C17 36.66 17 37.32 17 38 C15.35 38 13.7 38 12 38 C11.82 38.92 11.82 38.92 11.63 39.86 C11.47 40.67 11.3 41.48 11.12 42.31 C10.96 43.11 10.8 43.91 10.63 44.74 C10 47 10 47 8 50 C7.01 50 6.02 50 5 50 C2.23 44.46 4.04 36.66 5.17 30.81 C6.27 28.4 7.59 27.94 10 27 C8.01 26.62 6.01 26.29 4 26 C3.67 26.33 3.34 26.66 3 27 C3.99 27.33 4.98 27.66 6 28 C5.34 28.66 4.68 29.32 4 30 C0.95 29.97 -1.97 29.43 -5 29 C-5 32.3 -5 35.6 -5 39 C-4.34 39.33 -3.68 39.66 -3 40 C-3.26 41.86 -3.26 41.86 -4 44 C-5.74 45.27 -5.74 45.27 -7.88 46.25 C-8.57 46.59 -9.27 46.92 -9.99 47.27 C-12 48 -12 48 -15 48 C-15.83 48.08 -16.65 48.16 -17.5 48.25 C-20 48 -20 48 -21.81 46.44 C-23.43 43.12 -23.33 40.65 -23 37 C-22.67 36.36 -22.34 35.72 -22 35.06 C-20.4 31.76 -20.88 28.65 -21 25 C-21 22 -21 22 -19 19 C-18.01 19 -17.02 19 -16 19 C-16.04 18.22 -16.08 17.43 -16.12 16.62 C-16 14 -16 14 -14 12 C-12.01 11.6 -10.01 11.26 -8 11 C-7.86 10.22 -7.71 9.43 -7.56 8.62 C-7 6 -7 6 -6 4 C-5.01 4 -4.02 4 -3 4 C-3 3.34 -3 2.68 -3 2 C-2.01 2 -1.02 2 0 2 C0 1.34 0 0.68 0 0 Z " fill="#756160" transform="translate(56,37)"/>
<path d="M0 0 C1.65 0 3.3 0 5 0 C4.67 1.65 4.34 3.3 4 5 C4.66 4.01 5.32 3.02 6 2 C6.99 2.33 7.98 2.66 9 3 C9.33 3.99 9.66 4.98 10 6 C10 4.68 10 3.36 10 2 C13.3 2 16.6 2 20 2 C20.12 7.75 20.12 7.75 19 10 C21.98 9.9 21.98 9.9 24.96 9.8 C27 10 27 10 30 12 C29.67 13.32 29.34 14.64 29 16 C29.99 16.66 30.98 17.32 32 18 C32.39 21.08 32.64 23.09 30.81 25.69 C27.87 27.82 24.89 29.58 21.59 31.12 C16.51 33.52 13.31 35.34 10 40 C7 42.12 5.69 43 2 43 C2 40.69 2 38.38 2 36 C-0.49 34.75 -1.41 35.22 -4 36 C-2.68 36.33 -1.36 36.66 0 37 C-0.66 38.32 -1.32 39.64 -2 41 C-3.32 41 -4.64 41 -6 41 C-9.27 36.09 -8.55 30.74 -8 25 C-7.15 22.19 -6.09 19.56 -4.96 16.86 C-3.24 11.72 -3.17 6.38 -3 1 C-2.01 1.33 -1.02 1.66 0 2 C0 1.34 0 0.68 0 0 Z " fill="#E5E2E1" transform="translate(90,61)"/>
<path d="M0 0 C2.38 0.31 2.38 0.31 5 1 C7.51 4.76 7.49 7.65 7 12 C6.21 15.15 5.13 18.18 4.06 21.25 C0.7 31.51 0.02 41.26 0 52 C-1.65 51.67 -3.3 51.34 -5 51 C-5 50.01 -5 49.02 -5 48 C-5.66 48 -6.32 48 -7 48 C-7.35 37.89 -6 28.64 -3 19 C-3.66 19 -4.32 19 -5 19 C-5.11 19.59 -5.22 20.17 -5.33 20.78 C-6.76 25.53 -10.72 29.06 -14.62 31.94 C-17 33 -17 33 -21 33 C-23 30 -23 30 -23 27 C-20 26 -20 26 -17.94 26.94 C-16.98 27.46 -16.98 27.46 -16 28 C-15.34 28 -14.68 28 -14 28 C-13.69 27.38 -13.38 26.76 -13.06 26.12 C-12.38 24.75 -11.69 23.38 -11 22 C-10.34 22 -9.68 22 -9 22 C-8.94 21.46 -8.88 20.93 -8.81 20.38 C-8 18 -8 18 -5.56 15.31 C-2.76 12.15 -2.07 9.15 -1.36 5.05 C-1 3 -1 3 0 0 Z " fill="#2DC0DA" transform="translate(79,60)"/>
<path d="M0 0 C0.72 0.64 1.44 1.28 2.19 1.94 C4.98 3.99 6.62 4.61 10 5 C10 5.66 10 6.32 10 7 C8.68 6.67 7.36 6.34 6 6 C6 7.32 6 8.64 6 10 C5.34 9.67 4.68 9.34 4 9 C4 8.34 4 7.68 4 7 C3.34 6.67 2.68 6.34 2 6 C1.67 7.32 1.34 8.64 1 10 C0.34 9.67 -0.32 9.34 -1 9 C-0.34 7.35 0.32 5.7 1 4 C-0.32 4.33 -1.64 4.66 -3 5 C-3.33 6.32 -3.66 7.64 -4 9 C-4.5 7.52 -4.5 7.52 -5 6 C-5.66 5.67 -6.32 5.34 -7 5 C-6.94 5.76 -6.88 6.53 -6.82 7.32 C-6.42 16.85 -8.61 24.25 -12 33 C-12.33 33 -12.66 33 -13 33 C-12.52 28.68 -11.67 24.73 -10.44 20.56 C-9.11 15.8 -8.47 11.93 -9 7 C-10.21 4.95 -10.21 4.95 -12 4 C-12.66 4 -13.32 4 -14 4 C-14 6.31 -14 8.62 -14 11 C-14.66 11 -15.32 11 -16 11 C-16.43 12.13 -16.87 13.27 -17.31 14.44 C-17.87 15.61 -18.43 16.79 -19 18 C-19.99 18.33 -20.98 18.66 -22 19 C-23.23 22.01 -23.23 22.01 -24 25 C-24.66 25 -25.32 25 -26 25 C-26.27 25.6 -26.54 26.2 -26.81 26.81 C-27.98 28.97 -29.19 30.36 -31 32 C-31.78 31.67 -32.57 31.34 -33.38 31 C-35.84 29.88 -35.84 29.88 -38 30 C-37.34 31.98 -36.68 33.96 -36 36 C-33.03 35.01 -30.06 34.02 -27 33 C-28.81 36 -28.81 36 -31 39 C-31.99 39 -32.98 39 -34 39 C-34 38.34 -34 37.68 -34 37 C-34.99 37 -35.98 37 -37 37 C-37 36.34 -37 35.68 -37 35 C-37.66 35 -38.32 35 -39 35 C-40.6 31.5 -41.31 28.85 -41 25 C-40.67 24.34 -40.34 23.68 -40 23 C-40.33 22.01 -40.66 21.02 -41 20 C-41.99 19.67 -42.98 19.34 -44 19 C-44 15.7 -44 12.4 -44 9 C-40.31 7.77 -37.8 8.44 -34 9 C-33.67 8.67 -33.34 8.34 -33 8 C-33.66 7.67 -34.32 7.34 -35 7 C-34.67 6.34 -34.34 5.68 -34 5 C-32.02 5.66 -30.04 6.32 -28 7 C-28.33 7.66 -28.66 8.32 -29 9 C-29.66 9 -30.32 9 -31 9 C-32.9 16.13 -33.22 22.64 -33 30 C-32.01 30 -31.02 30 -30 30 C-29.8 29.3 -29.59 28.6 -29.38 27.88 C-29.11 26.97 -28.84 26.06 -28.56 25.12 C-28.16 23.77 -28.16 23.77 -27.75 22.38 C-27 20 -27 20 -26 18 C-24.35 18 -22.7 18 -21 18 C-21.33 17.01 -21.66 16.02 -22 15 C-21.01 15 -20.02 15 -19 15 C-19.33 13.35 -19.66 11.7 -20 10 C-19.34 10 -18.68 10 -18 10 C-18 9.34 -18 8.68 -18 8 C-18.66 7.67 -19.32 7.34 -20 7 C-19.34 7 -18.68 7 -18 7 C-18 5.68 -18 4.36 -18 3 C-18.66 3 -19.32 3 -20 3 C-20 2.34 -20 1.68 -20 1 C-18.09 1.02 -18.09 1.02 -16.13 1.04 C-14.46 1.04 -12.79 1.05 -11.12 1.06 C-10.28 1.07 -9.44 1.08 -8.57 1.09 C-7.77 1.09 -6.96 1.09 -6.13 1.1 C-5.39 1.1 -4.65 1.11 -3.88 1.11 C-1.91 1.12 -1.91 1.12 0 0 Z " fill="#3D4750" transform="translate(94,57)"/>
<path d="M0 0 C1.16 0.03 1.16 0.03 2.34 0.05 C3.12 0.05 3.89 0.06 4.69 0.06 C6.84 0.36 6.84 0.36 9.84 2.36 C9.51 3.68 9.18 5 8.84 6.36 C9.83 7.02 10.82 7.68 11.84 8.36 C12.24 11.44 12.48 13.45 10.66 16.05 C6.09 19.36 1.12 21.74 -3.95 24.18 C-6.28 25.29 -6.28 25.29 -8.16 27.36 C-8.49 24.72 -8.82 22.08 -9.16 19.36 C-8.17 19.36 -7.18 19.36 -6.16 19.36 C-6.16 18.04 -6.16 16.72 -6.16 15.36 C-5.17 15.03 -4.18 14.7 -3.16 14.36 C-3.49 13.04 -3.82 11.72 -4.16 10.36 C-5.15 11.85 -5.15 11.85 -6.16 13.36 C-6.16 12.7 -6.16 12.04 -6.16 11.36 C-6.82 11.36 -7.48 11.36 -8.16 11.36 C-8.49 8.72 -8.82 6.08 -9.16 3.36 C-7.84 3.36 -6.52 3.36 -5.16 3.36 C-4.67 2.87 -4.19 2.39 -3.69 1.88 C-2.16 0.36 -2.16 0.36 0 0 Z " fill="#E3DFDF" transform="translate(110.15625,70.63671875)"/>
<path d="M0 0 C0.33 0.66 0.66 1.32 1 2 C0.67 2.66 0.34 3.32 0 4 C0.99 4.33 1.98 4.66 3 5 C2.34 5.66 1.68 6.32 1 7 C-2.05 6.97 -4.97 6.43 -8 6 C-8 9.3 -8 12.6 -8 16 C-7.34 16.33 -6.68 16.66 -6 17 C-6.26 18.86 -6.26 18.86 -7 21 C-8.74 22.27 -8.74 22.27 -10.88 23.25 C-11.57 23.59 -12.27 23.92 -12.99 24.27 C-15 25 -15 25 -18 25 C-19.24 25.12 -19.24 25.12 -20.5 25.25 C-23 25 -23 25 -24.81 23.44 C-26.45 20.07 -26.39 17.7 -26 14 C-24.5 11.06 -24.5 11.06 -23 9 C-21.39 9.28 -21.39 9.28 -19.75 9.56 C-16.6 9.93 -14.9 10.04 -12 9 C-12.33 7.02 -12.66 5.04 -13 3 C-10 3 -7 3 -4 3 C-2.64 2.04 -1.3 1.04 0 0 Z " fill="#E0D8D9" transform="translate(59,60)"/>
<path d="M0 0 C0.66 0.33 1.32 0.66 2 1 C1.67 1.66 1.34 2.32 1 3 C1.99 3 2.98 3 4 3 C3.67 3.99 3.34 4.98 3 6 C2.01 6 1.02 6 0 6 C0.33 7.65 0.66 9.3 1 11 C1 10.01 1 9.02 1 8 C1.99 7.34 2.98 6.68 4 6 C4.66 5.01 5.32 4.02 6 3 C6.66 4.65 7.32 6.3 8 8 C8.66 8 9.32 8 10 8 C10.16 16.06 10.16 16.06 9 20 C8.34 20.33 7.68 20.66 7 21 C7 21.66 7 22.32 7 23 C5.35 23 3.7 23 2 23 C1.88 23.61 1.76 24.23 1.63 24.86 C1.38 26.08 1.38 26.08 1.12 27.31 C0.96 28.11 0.8 28.91 0.63 29.74 C0 32 0 32 -2 35 C-2.99 35 -3.98 35 -5 35 C-7.77 29.46 -5.96 21.66 -4.83 15.81 C-3.73 13.4 -2.41 12.94 0 12 C-2.97 11.5 -2.97 11.5 -6 11 C-5.51 10.42 -5.01 9.84 -4.5 9.25 C-2.63 6.9 -2.63 6.9 -3 3 C-2.01 3 -1.02 3 0 3 C0 2.01 0 1.02 0 0 Z " fill="#E7DDDD" transform="translate(66,52)"/>
<path d="M0 0 C1.65 0 3.3 0 5 0 C4.67 1.65 4.34 3.3 4 5 C4.99 4.67 5.98 4.34 7 4 C7 4.99 7 5.98 7 7 C7.99 7.33 8.98 7.66 10 8 C10.69 10.06 10.69 10.06 11 12 C10.01 12 9.02 12 8 12 C8.55 15.37 9.05 17.08 11 20 C9.02 20.99 9.02 20.99 7 22 C6.34 21.01 5.68 20.02 5 19 C5.66 20.65 6.32 22.3 7 24 C6.38 23.67 5.76 23.34 5.12 23 C3.09 21.86 3.09 21.86 1 22 C-0.77 23.19 -0.77 23.19 -2 25 C-1.77 27.16 -1.77 27.16 -1 29 C-2.98 28.67 -4.96 28.34 -7 28 C-6.57 24.5 -6.08 21.24 -5 17.88 C-3.33 12.44 -3.32 6.64 -3 1 C-2.01 1.33 -1.02 1.66 0 2 C0 1.34 0 0.68 0 0 Z " fill="#E7E2E2" transform="translate(90,61)"/>
<path d="M0 0 C1.32 0.33 2.64 0.66 4 1 C3.01 2.32 2.02 3.64 1 5 C1.99 5 2.98 5 4 5 C4 5.99 4 6.98 4 8 C5.32 8 6.64 8 8 8 C7 10 7 10 4 12 C4 12.66 4 13.32 4 14 C3.34 14 2.68 14 2 14 C2 13.01 2 12.02 2 11 C-0.97 10.5 -0.97 10.5 -4 10 C-4 9.01 -4 8.02 -4 7 C-4.66 7 -5.32 7 -6 7 C-5.81 7.74 -5.63 8.48 -5.44 9.25 C-5.01 11.95 -5.15 13.45 -6 16 C-6.66 16 -7.32 16 -8 16 C-8.33 15.34 -8.66 14.68 -9 14 C-9.66 15.32 -10.32 16.64 -11 18 C-10.34 18 -9.68 18 -9 18 C-8.67 19.32 -8.34 20.64 -8 22 C-10.31 22.66 -12.62 23.32 -15 24 C-15 22.68 -15 21.36 -15 20 C-13.68 20.66 -12.36 21.32 -11 22 C-11.49 21.59 -11.99 21.17 -12.5 20.75 C-14 19 -14 19 -14 15 C-14.66 15 -15.32 15 -16 15 C-16.33 16.32 -16.66 17.64 -17 19 C-19 18 -19 18 -19.81 16.19 C-20 14 -20 14 -18.75 11.75 C-18.17 11.17 -17.59 10.59 -17 10 C-16.01 10 -15.02 10 -14 10 C-14.04 9.22 -14.08 8.43 -14.12 7.62 C-14 5 -14 5 -12 3 C-8.2 1.48 -5.09 0.76 -1 1 C-0.67 1.66 -0.34 2.32 0 3 C0 2.01 0 1.02 0 0 Z " fill="#E2D3D2" transform="translate(54,46)"/>
<path d="M0 0 C0.99 0.33 1.98 0.66 3 1 C3.33 1.99 3.66 2.98 4 4 C4 2.68 4 1.36 4 0 C7.3 0 10.6 0 14 0 C14.25 5.62 14.25 5.62 12 9 C11.34 9 10.68 9 10 9 C9.34 10.32 8.68 11.64 8 13 C7.67 12.34 7.34 11.68 7 11 C5.58 12.18 5.58 12.18 5.94 15.56 C5.96 16.7 5.98 17.83 6 19 C6.66 19 7.32 19 8 19 C8.66 18.34 9.32 17.68 10 17 C10.66 17.66 11.32 18.32 12 19 C11.75 21.06 11.75 21.06 11 23 C10.34 23.33 9.68 23.66 9 24 C9 25.65 9 27.3 9 29 C7.68 28.01 6.36 27.02 5 26 C5.33 24.35 5.66 22.7 6 21 C5.01 21.33 4.02 21.66 3 22 C0.81 21.06 0.81 21.06 -1 20 C-1 19.01 -1 18.02 -1 17 C-0.34 17.33 0.32 17.66 1 18 C1.99 18 2.98 18 4 18 C3.34 18 2.68 18 2 18 C1.86 16.89 1.71 15.77 1.56 14.62 C1.22 11.18 1.22 11.18 0 9 C1.32 9 2.64 9 4 9 C4 8.34 4 7.68 4 7 C3.01 6.67 2.02 6.34 1 6 C0.67 4.02 0.34 2.04 0 0 Z " fill="#E2DBDB" transform="translate(96,63)"/>
<path d="M0 0 C2.31 0.66 4.62 1.32 7 2 C6.67 2.66 6.34 3.32 6 4 C5.34 4 4.68 4 4 4 C3 8.27 2.06 12.45 1.56 16.81 C0.97 20.15 0.42 21.67 -2 24 C-4.19 24.75 -4.19 24.75 -6 25 C-6.12 20.25 -6.12 20.25 -5 18 C-5.33 17.01 -5.66 16.02 -6 15 C-6.99 14.67 -7.98 14.34 -9 14 C-9 10.7 -9 7.4 -9 4 C-5.31 2.77 -2.8 3.44 1 4 C1.33 3.67 1.66 3.34 2 3 C1.34 2.67 0.68 2.34 0 2 C0 1.34 0 0.68 0 0 Z " fill="#745A5D" transform="translate(59,62)"/>
<path d="M0 0 C3.63 0 7.26 0 11 0 C11 0.66 11 1.32 11 2 C12.32 2.33 13.64 2.66 15 3 C15 3.99 15 4.98 15 6 C11.7 6 8.4 6 5 6 C5 6.99 5 7.98 5 9 C7.31 9 9.62 9 12 9 C11.67 10.65 11.34 12.3 11 14 C10.34 13.34 9.68 12.68 9 12 C9.33 11.34 9.66 10.68 10 10 C8.42 10.03 8.42 10.03 6.81 10.06 C3.67 10.01 1.03 9.73 -2 9 C-2 9.99 -2 10.98 -2 12 C-3.98 11.34 -5.96 10.68 -8 10 C-7.34 8.02 -6.68 6.04 -6 4 C-5.01 4 -4.02 4 -3 4 C-3 3.34 -3 2.68 -3 2 C-2.01 2 -1.02 2 0 2 C0 1.34 0 0.68 0 0 Z " fill="#1C0301" transform="translate(56,37)"/>
<path d="M0 0 C1 3 1 3 0.07 5.27 C-1.22 8.55 -1.23 11.11 -1.19 14.62 C-1.18 15.75 -1.17 16.88 -1.17 18.04 C-1.13 21.06 -1.13 21.06 0 24 C-2.97 24 -5.94 24 -9 24 C-11.61 18.78 -11.53 14.61 -10 9 C-7.19 7.19 -7.19 7.19 -4 6 C-1.63 2.95 -1.63 2.95 0 0 Z " fill="#45505A" transform="translate(72,88)"/>
<path d="M0 0 C0.33 0 0.66 0 1 0 C1.35 5.64 0.64 9.11 -2 14 C-2.99 14.33 -3.98 14.66 -5 15 C-6.23 18.01 -6.23 18.01 -7 21 C-7.66 21 -8.32 21 -9 21 C-9.27 21.6 -9.54 22.2 -9.81 22.81 C-10.98 24.97 -12.19 26.36 -14 28 C-14.78 27.67 -15.57 27.34 -16.38 27 C-18.84 25.88 -18.84 25.88 -21 26 C-20.34 27.98 -19.68 29.96 -19 32 C-16.03 31.01 -13.06 30.02 -10 29 C-11.81 32 -11.81 32 -14 35 C-14.99 35 -15.98 35 -17 35 C-17 34.34 -17 33.68 -17 33 C-17.99 33 -18.98 33 -20 33 C-20 32.34 -20 31.68 -20 31 C-20.66 31 -21.32 31 -22 31 C-22.33 29.02 -22.66 27.04 -23 25 C-21 23.67 -19 22.33 -17 21 C-16.67 22.65 -16.34 24.3 -16 26 C-15.01 26 -14.02 26 -13 26 C-12.8 25.3 -12.59 24.6 -12.38 23.88 C-12.11 22.97 -11.84 22.06 -11.56 21.12 C-11.16 19.77 -11.16 19.77 -10.75 18.38 C-10 16 -10 16 -9 14 C-7.35 14 -5.7 14 -4 14 C-4.33 13.01 -4.66 12.02 -5 11 C-4.01 11 -3.02 11 -2 11 C-2.33 9.35 -2.66 7.7 -3 6 C-2.34 6 -1.68 6 -1 6 C-1 5.34 -1 4.68 -1 4 C-1.66 3.67 -2.32 3.34 -3 3 C-2.01 3 -1.02 3 0 3 C0 2.01 0 1.02 0 0 Z " fill="#3C4652" transform="translate(77,61)"/>
<path d="M0 0 C0.33 0 0.66 0 1 0 C1.06 0.61 1.12 1.23 1.18 1.86 C1.27 2.67 1.35 3.48 1.44 4.31 C1.52 5.11 1.6 5.91 1.68 6.74 C1.95 9.16 1.95 9.16 3 12 C6.73 10.88 6.73 10.88 9 8 C7.35 7.67 5.7 7.34 4 7 C4.33 6.34 4.66 5.68 5 5 C7.38 4.88 7.38 4.88 10 5 C12 7 12 7 12.2 8.95 C12.13 10.96 12.07 12.98 12 15 C10.02 15 8.04 15 6 15 C5.67 17.31 5.34 19.62 5 22 C3.68 22.33 2.36 22.66 1 23 C-0.25 15.35 -0.09 7.73 0 0 Z " fill="#ABA4A4" transform="translate(81,90)"/>
<path d="M0 0 C1.5 1.38 1.5 1.38 3 3 C3 3.66 3 4.32 3 5 C3.66 5 4.32 5 5 5 C5.16 13.06 5.16 13.06 4 17 C3.34 17.33 2.68 17.66 2 18 C2 18.66 2 19.32 2 20 C0.35 20 -1.3 20 -3 20 C-3 14.67 -3 9.33 -3 4 C-2.34 3.67 -1.68 3.34 -1 3 C-0.67 2.01 -0.34 1.02 0 0 Z " fill="#A58A87" transform="translate(71,55)"/>
<path d="M0 0 C1.16 0.03 1.16 0.03 2.34 0.05 C3.12 0.05 3.89 0.06 4.69 0.06 C6.84 0.36 6.84 0.36 9.84 2.36 C9.84 3.02 9.84 3.68 9.84 4.36 C6.79 5.34 4.9 5.34 1.84 4.36 C1.69 5.26 1.69 5.26 1.53 6.18 C0.75 8.65 -0.23 9.69 -2.16 11.36 C-2.82 11.03 -3.48 10.7 -4.16 10.36 C-5.15 11.85 -5.15 11.85 -6.16 13.36 C-6.16 12.7 -6.16 12.04 -6.16 11.36 C-6.82 11.36 -7.48 11.36 -8.16 11.36 C-8.49 8.72 -8.82 6.08 -9.16 3.36 C-7.84 3.36 -6.52 3.36 -5.16 3.36 C-4.67 2.87 -4.19 2.39 -3.69 1.88 C-2.16 0.36 -2.16 0.36 0 0 Z " fill="#E4E2E1" transform="translate(110.15625,70.63671875)"/>
<path d="M0 0 C0.33 0.99 0.66 1.98 1 3 C1.66 3 2.32 3 3 3 C3.33 2.34 3.66 1.68 4 1 C4.33 1.33 4.66 1.66 5 2 C5 1.34 5 0.68 5 0 C7 0 7 0 9.12 2 C9.74 2.66 10.36 3.32 11 4 C10.67 4.99 10.34 5.98 10 7 C9.01 7.5 9.01 7.5 8 8 C8 8.66 8 9.32 8 10 C6.68 10.33 5.36 10.66 4 11 C5.32 11.33 6.64 11.66 8 12 C7.34 13.32 6.68 14.64 6 16 C4.68 16 3.36 16 2 16 C-0.42 12.37 -0.21 10.62 -0.12 6.31 C-0.1 4.54 -0.1 4.54 -0.07 2.74 C-0.05 1.83 -0.02 0.93 0 0 Z " fill="#DED6D3" transform="translate(82,86)"/>
<path d="M0 0 C1.32 0.33 2.64 0.66 4 1 C3.01 2.32 2.02 3.64 1 5 C1.99 5 2.98 5 4 5 C4 5.99 4 6.98 4 8 C5.32 8 6.64 8 8 8 C7 10 7 10 4 12 C4 12.66 4 13.32 4 14 C3.34 14 2.68 14 2 14 C2 13.01 2 12.02 2 11 C-0.97 10.5 -0.97 10.5 -4 10 C-4 9.01 -4 8.02 -4 7 C-5.65 7.33 -7.3 7.66 -9 8 C-8.34 7.01 -7.68 6.02 -7 5 C-6.34 5 -5.68 5 -5 5 C-5 3.68 -5 2.36 -5 1 C-1.12 1.88 -1.12 1.88 0 3 C0 2.01 0 1.02 0 0 Z " fill="#E2D8D1" transform="translate(54,46)"/>
<path d="M0 0 C0.66 0.33 1.32 0.66 2 1 C1.69 1.56 1.38 2.11 1.06 2.69 C-0.13 4.94 -0.13 4.94 -0.19 7.38 C-1.47 11.51 -4.42 13.71 -8 16 C-11.44 16.88 -11.44 16.88 -14 17 C-16 14 -16 14 -16 11 C-13 10 -13 10 -10.94 10.94 C-10.3 11.29 -9.66 11.64 -9 12 C-8.34 12 -7.68 12 -7 12 C-6.69 11.38 -6.38 10.76 -6.06 10.12 C-5.38 8.75 -4.69 7.38 -4 6 C-3.34 6 -2.68 6 -2 6 C-1.78 5.07 -1.78 5.07 -1.56 4.12 C-1 2 -1 2 0 0 Z " fill="#37AFBD" transform="translate(72,76)"/>
<path d="M0 0 C2.38 0.31 2.38 0.31 5 1 C7.52 4.78 7.49 7.63 7 12 C6.15 15.72 5.12 19.36 4 23 C3.34 23 2.68 23 2 23 C2 15.74 2 8.48 2 1 C1.34 0.67 0.68 0.34 0 0 Z " fill="#55BCCE" transform="translate(79,60)"/>
<path d="M0 0 C0.5 0.33 0.99 0.66 1.5 1 C1.5 1.33 1.5 1.66 1.5 2 C0.47 2.06 0.47 2.06 -0.58 2.11 C-1.48 2.18 -2.38 2.24 -3.31 2.31 C-4.21 2.37 -5.1 2.43 -6.02 2.49 C-8.86 3.08 -9.57 3.94 -11.5 6 C-12.49 6 -13.48 6 -14.5 6 C-14.5 6.99 -14.5 7.98 -14.5 9 C-15.82 8.34 -17.14 7.68 -18.5 7 C-18.44 5.25 -18.44 5.25 -17.5 3 C-11.91 -1.1 -6.76 -2.7 0 0 Z " fill="#9B5C46" transform="translate(68.5,40)"/>
<path d="M0 0 C0.66 1.32 1.32 2.64 2 4 C0.02 4.99 0.02 4.99 -2 6 C-2 6.99 -2 7.98 -2 9 C-2.99 9 -3.98 9 -5 9 C-5 10.32 -5 11.64 -5 13 C-5.99 12.67 -6.98 12.34 -8 12 C-8.33 12.33 -8.66 12.66 -9 13 C-9.99 12.34 -10.98 11.68 -12 11 C-11.67 10.34 -11.34 9.68 -11 9 C-10.01 9 -9.02 9 -8 9 C-8.06 7.82 -8.06 7.82 -8.12 6.62 C-8 4 -8 4 -6 2 C-4.02 1.29 -2.02 0.61 0 0 Z " fill="#B5A6A7" transform="translate(48,47)"/>
<path d="M0 0 C0.66 0 1.32 0 2 0 C2 2.31 2 4.62 2 7 C2.66 7 3.32 7 4 7 C4.66 6.34 5.32 5.68 6 5 C6.66 5.66 7.32 6.32 8 7 C7.75 9.06 7.75 9.06 7 11 C6.01 11.5 6.01 11.5 5 12 C5 13.65 5 15.3 5 17 C3.68 16.01 2.36 15.02 1 14 C1.33 12.35 1.66 10.7 2 9 C1.01 9.33 0.02 9.66 -1 10 C-3.19 9.06 -3.19 9.06 -5 8 C-5 7.01 -5 6.02 -5 5 C-4.01 5.5 -4.01 5.5 -3 6 C-2.01 6 -1.02 6 0 6 C0 4.02 0 2.04 0 0 Z " fill="#958488" transform="translate(100,75)"/>
<path d="M0 0 C1.11 1.11 1.11 1.11 2.25 2.25 C4.94 3.04 4.94 3.04 7.25 3.25 C7.25 3.91 7.25 4.57 7.25 5.25 C5.93 4.92 4.61 4.59 3.25 4.25 C3.25 5.57 3.25 6.89 3.25 8.25 C2.59 7.92 1.93 7.59 1.25 7.25 C1.25 6.59 1.25 5.93 1.25 5.25 C0.59 4.92 -0.07 4.59 -0.75 4.25 C-1.08 5.57 -1.41 6.89 -1.75 8.25 C-2.41 7.92 -3.07 7.59 -3.75 7.25 C-3.09 5.6 -2.43 3.95 -1.75 2.25 C-3.07 2.58 -4.39 2.91 -5.75 3.25 C-6.08 4.57 -6.41 5.89 -6.75 7.25 C-7.08 6.26 -7.41 5.27 -7.75 4.25 C-8.74 4.25 -9.73 4.25 -10.75 4.25 C-11.08 3.26 -11.41 2.27 -11.75 1.25 C-3.68 -2.34 -3.68 -2.34 0 0 Z " fill="#5A4646" transform="translate(96.75,58.75)"/>
<path d="M0 0 C2.97 0.33 5.94 0.66 9 1 C7.73 4.91 6.57 6.9 3 9 C0.75 9.69 0.75 9.69 -1 10 C-1 9.34 -1 8.68 -1 8 C-0.34 8 0.32 8 1 8 C1 7.01 1 6.02 1 5 C-0.32 5.33 -1.64 5.66 -3 6 C-2 3 -2 3 0 1 C0 0.67 0 0.34 0 0 Z " fill="#7B4C46" transform="translate(57,46)"/>
<path d="M0 0 C0.33 0.66 0.66 1.32 1 2 C3.26 2.81 5.55 3.41 7.87 4.02 C10 5 10 5 11.29 6.85 C12 9 12 9 12 13 C10.35 13.33 8.7 13.66 7 14 C7.66 12.35 8.32 10.7 9 9 C5.7 8.34 2.4 7.68 -1 7 C-0.67 4.69 -0.34 2.38 0 0 Z " fill="#231114" transform="translate(110,64)"/>
<path d="M0 0 C1.14 0.28 1.14 0.28 2.31 0.56 C5.09 1.23 5.09 1.23 8 0 C7.4 2.02 6.73 4.02 6 6 C5.01 6.5 5.01 6.5 4 7 C3.67 6.34 3.34 5.68 3 5 C3 5.66 3 6.32 3 7 C3.99 7.33 4.98 7.66 6 8 C5.34 9.32 4.68 10.64 4 12 C4 11.34 4 10.68 4 10 C3.01 10 2.02 10 1 10 C0.67 9.01 0.34 8.02 0 7 C-0.66 6.67 -1.32 6.34 -2 6 C-1.34 4.02 -0.68 2.04 0 0 Z " fill="#E5DCDB" transform="translate(53,68)"/>
<path d="M0 0 C1.17 3.5 1 6.32 1 10 C1.29 12.01 1.61 14.01 2 16 C0.68 15.67 -0.64 15.34 -2 15 C-2 14.67 -2 14.34 -2 14 C-2.98 12.98 -3.98 11.98 -5 11 C-4.67 10.01 -4.34 9.02 -4 8 C-3.01 8 -2.02 8 -1 8 C-1 7.34 -1 6.68 -1 6 C-2.32 5.67 -3.64 5.34 -5 5 C-5 4.01 -5 3.02 -5 2 C-3.35 1.34 -1.7 0.68 0 0 Z " fill="#CFC5C5" transform="translate(68,96)"/>
<path d="M0 0 C1.5 1.38 1.5 1.38 3 3 C3 3.66 3 4.32 3 5 C3.66 5 4.32 5 5 5 C5 6.32 5 7.64 5 9 C3.02 9.66 1.04 10.32 -1 11 C-2.56 9.19 -2.56 9.19 -4 7 C-3.67 6.01 -3.34 5.02 -3 4 C-2.34 3.67 -1.68 3.34 -1 3 C-0.67 2.01 -0.34 1.02 0 0 Z " fill="#DAD2D4" transform="translate(71,55)"/>
<path d="M0 0 C2.5 3.74 2.45 7.66 2 12 C1 15 1 15 0 17 C-0.99 17 -1.98 17 -3 17 C-3.2 5.82 -3.2 5.82 -2 2 C-1.34 1.34 -0.68 0.68 0 0 Z " fill="#319AB0" transform="translate(80,61)"/>
<path d="M0 0 C1.7 0.25 3.38 0.58 5.06 0.94 C5.98 1.13 6.9 1.33 7.85 1.53 C8.91 1.76 8.91 1.76 10 2 C8.14 3.52 8.14 3.52 6 5 C3.75 4.69 3.75 4.69 2 4 C1.67 5.65 1.34 7.3 1 9 C1.66 9 2.32 9 3 9 C3 10.32 3 11.64 3 13 C3.99 13 4.98 13 6 13 C6 13.66 6 14.32 6 15 C4.68 15 3.36 15 2 15 C2 14.01 2 13.02 2 12 C1.01 11.67 0.02 11.34 -1 11 C-1.03 9.35 -1.05 7.71 -1.06 6.06 C-1.07 5.15 -1.09 4.23 -1.1 3.29 C-1 1 -1 1 0 0 Z " fill="#755A5E" transform="translate(51,65)"/>
<path d="M0 0 C0.33 0.66 0.66 1.32 1 2 C1.66 2 2.32 2 3 2 C3.33 2.99 3.66 3.98 4 5 C4.99 5 5.98 5 7 5 C6.75 6.88 6.75 6.88 6 9 C3.94 10.25 3.94 10.25 2 11 C1.34 10.34 0.68 9.68 0 9 C-0.33 9 -0.66 9 -1 9 C-1.12 2.25 -1.12 2.25 0 0 Z " fill="#BBA1AB" transform="translate(34,72)"/>
<path d="M0 0 C2.88 -0.12 2.88 -0.12 6 0 C8 2 8 2 8.2 3.95 C8.13 5.96 8.07 7.98 8 10 C5 9 5 9 4 8 C2 7.96 -0 7.96 -2 8 C-2.33 7.01 -2.66 6.02 -3 5 C-2.34 5 -1.68 5 -1 5 C-1 5.66 -1 6.32 -1 7 C2.73 5.88 2.73 5.88 5 3 C3.35 2.67 1.7 2.34 0 2 C0 1.34 0 0.68 0 0 Z " fill="#675657" transform="translate(85,95)"/>
<path d="M0 0 C0.66 0.66 1.32 1.32 2 2 C3.32 2 4.64 2 6 2 C6.2 5.72 6.15 6.77 4 10 C3.01 10 2.02 10 1 10 C-0.61 6.79 -0.06 3.56 0 0 Z " fill="#EFE8E9" transform="translate(60,77)"/>
<path d="M0 0 C0.33 0.66 0.66 1.32 1 2 C0.67 2.66 0.34 3.32 0 4 C0.99 4.33 1.98 4.66 3 5 C2.34 5.66 1.68 6.32 1 7 C-1.35 6.89 -3.59 6.49 -5.91 6.09 C-6.94 6.05 -6.94 6.05 -8 6 C-8.66 6.66 -9.32 7.32 -10 8 C-9.67 6.35 -9.34 4.7 -9 3 C-7.35 3.33 -5.7 3.66 -4 4 C-4 3.34 -4 2.68 -4 2 C-2.68 1.34 -1.36 0.68 0 0 Z " fill="#DFD1D1" transform="translate(59,60)"/>
<path d="M0 0 C1.98 2.92 1.99 4.12 1.62 7.75 C1.42 8.82 1.21 9.89 1 11 C0.67 10.01 0.34 9.02 0 8 C-1.65 8.33 -3.3 8.66 -5 9 C-5.49 6.53 -5.49 6.53 -6 4 C-4.35 3.67 -2.7 3.34 -1 3 C-0.67 2.01 -0.34 1.02 0 0 Z " fill="#DFDBD8" transform="translate(66,71)"/>
<path d="M0 0 C1.32 0.33 2.64 0.66 4 1 C4.77 5.06 5.1 8.86 5 13 C5.66 13.33 6.32 13.66 7 14 C6.62 15.94 6.62 15.94 6 18 C5.34 18.33 4.68 18.66 4 19 C3.88 18.34 3.75 17.68 3.62 17 C3.14 14.66 2.59 12.37 2 10.06 C1.15 6.73 0.51 3.4 0 0 Z " fill="#CFBEBE" transform="translate(46,63)"/>
<path d="M0 0 C0.66 0 1.32 0 2 0 C2 0.99 2 1.98 2 3 C2.99 2.67 3.98 2.34 5 2 C5.66 3.98 6.32 5.96 7 8 C6.01 8 5.02 8 4 8 C3.67 8.66 3.34 9.32 3 10 C2.01 10 1.02 10 0 10 C0 6.7 0 3.4 0 0 Z " fill="#A18C8D" transform="translate(48,53)"/>
<path d="M0 0 C0.66 0 1.32 0 2 0 C1.34 5.94 0.68 11.88 0 18 C-0.33 17.34 -0.66 16.68 -1 16 C-1.66 16 -2.32 16 -3 16 C-2.52 10.43 -1.7 5.33 0 0 Z " fill="#5EC1D3" transform="translate(79,86)"/>
<path d="M0 0 C1.98 1.65 3.96 3.3 6 5 C5.67 5.99 5.34 6.98 5 8 C4.67 7.34 4.34 6.68 4 6 C1.79 7.54 1.79 7.54 0 10 C0.15 13.69 0.15 13.69 1 17 C-0.89 14.61 -2.02 12.93 -3 10 C-2 8 -2 8 1 7 C1.33 6.34 1.66 5.68 2 5 C1.01 5 0.02 5 -1 5 C-0.67 3.35 -0.34 1.7 0 0 Z " fill="#6A5658" transform="translate(68,50)"/>
<path d="M0 0 C0.66 0 1.32 0 2 0 C2 0.99 2 1.98 2 3 C-1.3 3 -4.6 3 -8 3 C-8 3.99 -8 4.98 -8 6 C-5.69 6 -3.38 6 -1 6 C-1.33 7.65 -1.66 9.3 -2 11 C-2.66 10.34 -3.32 9.68 -4 9 C-3.67 8.34 -3.34 7.68 -3 7 C-4.67 7.06 -4.67 7.06 -6.38 7.12 C-10 7 -10 7 -12 5 C-10.31 2.96 -9.36 2.08 -6.74 1.49 C-5.94 1.43 -5.14 1.37 -4.31 1.31 C-3.1 1.21 -3.1 1.21 -1.86 1.11 C-0.94 1.06 -0.94 1.06 0 1 C0 0.67 0 0.34 0 0 Z " fill="#39120C" transform="translate(69,40)"/>
<path d="M0 0 C0.33 0.66 0.66 1.32 1 2 C-2.75 7.75 -2.75 7.75 -5 10 C-7.62 9.62 -7.62 9.62 -10 9 C-6.83 5.74 -3.6 2.78 0 0 Z " fill="#4BA6B2" transform="translate(72,86)"/>
<path d="M0 0 C0.66 0.33 1.32 0.66 2 1 C1.67 1.66 1.34 2.32 1 3 C1.99 3 2.98 3 4 3 C3.67 3.99 3.34 4.98 3 6 C2.01 6 1.02 6 0 6 C0 6.66 0 7.32 0 8 C-0.66 8.66 -1.32 9.32 -2 10 C-2.33 10.66 -2.66 11.32 -3 12 C-3.99 11.34 -4.98 10.68 -6 10 C-5.51 9.59 -5.01 9.17 -4.5 8.75 C-2.57 6.88 -2.57 6.88 -3 3 C-2.01 3 -1.02 3 0 3 C0 2.01 0 1.02 0 0 Z " fill="#E3D7D6" transform="translate(66,52)"/>
<path d="M0 0 C0.99 0 1.98 0 3 0 C3 0.99 3 1.98 3 3 C3.66 3 4.32 3 5 3 C5.33 2.34 5.66 1.68 6 1 C6 3.64 6 6.28 6 9 C4.35 8.67 2.7 8.34 1 8 C0.67 5.36 0.34 2.72 0 0 Z " fill="#04B1CF" transform="translate(73,103)"/>
<path d="M0 0 C0.66 0.33 1.32 0.66 2 1 C1.67 1.66 1.34 2.32 1 3 C1.66 3.33 2.32 3.66 3 4 C3 6.43 2.5 8.63 2 11 C0.02 11.33 -1.96 11.66 -4 12 C-2.62 10.5 -2.62 10.5 -1 9 C-0.34 9 0.32 9 1 9 C0.67 7.68 0.34 6.36 0 5 C-0.66 5 -1.32 5 -2 5 C-1.12 1.12 -1.12 1.12 0 0 Z " fill="#695151" transform="translate(45,59)"/>
<path d="M0 0 C2 0 2 0 4.12 2 C4.74 2.66 5.36 3.32 6 4 C5 7 5 7 2.94 8.19 C2.3 8.46 1.66 8.72 1 9 C0.01 8.01 -0.98 7.02 -2 6 C-1.01 5.01 -0.02 4.02 1 3 C0.67 2.01 0.34 1.02 0 0 Z " fill="#887473" transform="translate(87,86)"/>
<path d="M0 0 C0.99 0.66 1.98 1.32 3 2 C2.34 2 1.68 2 1 2 C1 2.99 1 3.98 1 5 C0.01 5 -0.98 5 -2 5 C-1.67 6.32 -1.34 7.64 -1 9 C-2.32 9.99 -3.64 10.98 -5 12 C-5.62 10.12 -5.62 10.12 -6 8 C-5.34 7.34 -4.68 6.68 -4 6 C-2.99 4.34 -1.99 2.67 -1 1 C-0.67 0.67 -0.34 0.34 0 0 Z " fill="#967D7A" transform="translate(65,50)"/>
<path d="M0 0 C0.66 0 1.32 0 2 0 C2.37 5.5 2.37 5.5 0.62 7.88 C-1 9 -1 9 -3 9 C-4.35 9.63 -5.68 10.3 -7 11 C-6.58 10.46 -6.16 9.91 -5.72 9.36 C-5.17 8.64 -4.63 7.92 -4.06 7.19 C-3.52 6.48 -2.97 5.77 -2.41 5.04 C-0.83 2.96 -0.83 2.96 0 0 Z " fill="#1B5061" transform="translate(74,79)"/>
<path d="M0 0 C0.66 0.99 1.32 1.98 2 3 C0.9 3.84 -0.2 4.67 -1.31 5.5 C-1.93 5.96 -2.54 6.43 -3.18 6.91 C-5 8 -5 8 -8 8 C-7.67 6.68 -7.34 5.36 -7 4 C-6.34 4 -5.68 4 -5 4 C-3.3 2.71 -1.63 1.37 0 0 Z " fill="#DAD8D7" transform="translate(100,96)"/>
<path d="M0 0 C2 0 4 0 6 0 C6.33 1.32 6.66 2.64 7 4 C6.38 4.29 5.76 4.58 5.12 4.88 C2.87 5.94 2.87 5.94 1 8 C0.67 5.36 0.34 2.72 0 0 Z " fill="#DED7D7" transform="translate(101,90)"/>
<path d="M0 0 C3.3 0.33 6.6 0.66 10 1 C9.34 3.31 8.68 5.62 8 8 C7.67 7.01 7.34 6.02 7 5 C6.34 5 5.68 5 5 5 C5 4.01 5 3.02 5 2 C3.35 2.33 1.7 2.66 0 3 C0 2.01 0 1.02 0 0 Z " fill="#E8E4E4" transform="translate(35,71)"/>
<path d="M0 0 C1.32 0.33 2.64 0.66 4 1 C3.34 1 2.68 1 2 1 C2 1.66 2 2.32 2 3 C2.66 3 3.32 3 4 3 C4 4.32 4 5.64 4 7 C3.34 7 2.68 7 2 7 C1.67 7.66 1.34 8.32 1 9 C1 8.01 1 7.02 1 6 C-0.65 6.33 -2.3 6.66 -4 7 C-3.34 6.01 -2.68 5.02 -2 4 C-1.34 4 -0.68 4 0 4 C0 2.68 0 1.36 0 0 Z " fill="#EBE1E0" transform="translate(49,47)"/>
<path d="M0 0 C0.33 0 0.66 0 1 0 C0.12 6.75 0.12 6.75 -1 9 C-1.66 9 -2.32 9 -3 9 C-3.33 10.32 -3.66 11.64 -4 13 C-4.66 12.01 -5.32 11.02 -6 10 C-5.34 10 -4.68 10 -4 10 C-3.9 9.28 -3.79 8.56 -3.69 7.81 C-2.94 4.74 -1.78 2.6 0 0 Z " fill="#55BBD0" transform="translate(77,70)"/>
<path d="M0 0 C0.33 0 0.66 0 1 0 C1.66 1.98 2.32 3.96 3 6 C3.99 6 4.98 6 6 6 C5.34 7.32 4.68 8.64 4 10 C2.68 9.67 1.36 9.34 0 9 C-1.12 2.25 -1.12 2.25 0 0 Z " fill="#362322" transform="translate(62,102)"/>
<path d="M0 0 C0.99 0.66 1.98 1.32 3 2 C2.01 2.33 1.02 2.66 0 3 C-0.33 4.65 -0.66 6.3 -1 8 C-3.47 6.85 -5.05 5.95 -7 4 C-4.69 2.68 -2.38 1.36 0 0 Z " fill="#31181B" transform="translate(54,79)"/>
<path d="M0 0 C1.98 0.66 3.96 1.32 6 2 C5.67 2.66 5.34 3.32 5 4 C4.01 4 3.02 4 2 4 C2 4.99 2 5.98 2 7 C0.68 6.34 -0.64 5.68 -2 5 C-1.12 1.12 -1.12 1.12 0 0 Z " fill="#6F3C33" transform="translate(52,42)"/>
<path d="M0 0 C2.44 1.19 2.44 1.19 3.44 3.19 C1.46 4.18 -0.52 5.17 -2.56 6.19 C-4.56 3.19 -4.56 3.19 -4.56 0.19 C-2.56 -0.81 -2.56 -0.81 0 0 Z " fill="#2D8893" transform="translate(60.5625,86.8125)"/>
<path d="M0 0 C1.32 0.66 2.64 1.32 4 2 C2.74 3.03 1.47 4.05 0.19 5.06 C-0.87 5.92 -0.87 5.92 -1.96 6.79 C-2.63 7.19 -3.31 7.59 -4 8 C-4.99 7.67 -5.98 7.34 -7 7 C-5.82 6.66 -5.82 6.66 -4.62 6.31 C-1.78 5.22 -1.78 5.22 -0.69 2.38 C-0.46 1.59 -0.23 0.81 0 0 Z " fill="#5EB0BF" transform="translate(66,85)"/>
<path d="M0 0 C2.69 0.31 2.69 0.31 5 1 C1.74 3.17 -1.59 5.07 -5 7 C-5.66 5.68 -6.32 4.36 -7 3 C-5.68 3 -4.36 3 -3 3 C-2.29 2.23 -2.29 2.23 -1.56 1.44 C-1.05 0.96 -0.53 0.49 0 0 Z " fill="#EBE6E5" transform="translate(108,71)"/>
<path d="M0 0 C2 1.31 2 1.31 4 4 C4.36 7.69 4.23 11.31 4 15 C1.93 11 0.62 8.44 2 4 C1.34 4 0.68 4 0 4 C-0.33 3.01 -0.66 2.02 -1 1 C-0.67 0.67 -0.34 0.34 0 0 Z " fill="#EEE7E6" transform="translate(64,60)"/>
<path d="M0 0 C1.98 0.49 1.98 0.49 4 1 C3.12 5.75 3.12 5.75 2 8 C1.34 8 0.68 8 0 8 C-0.8 4.71 -1.1 3.29 0 0 Z " fill="#DFD8D7" transform="translate(104,63)"/>
<path d="M0 0 C0.33 0.99 0.66 1.98 1 3 C-2.83 4.8 -5.78 5.2 -10 5 C-10 4.01 -10 3.02 -10 2 C-6.7 2 -3.4 2 0 2 C0 1.34 0 0.68 0 0 Z " fill="#120101" transform="translate(71,41)"/>
<path d="M0 0 C0.66 0.99 1.32 1.98 2 3 C0 6 0 6 -2.12 6.69 C-2.74 6.79 -3.36 6.89 -4 7 C-4 5.35 -4 3.7 -4 2 C-2.68 1.34 -1.36 0.68 0 0 Z " fill="#A39091" transform="translate(57,80)"/>
<path d="M0 0 C0.66 0 1.32 0 2 0 C2.25 5.62 2.25 5.62 0 9 C-2.62 9.69 -2.62 9.69 -5 10 C-4.67 9.34 -4.34 8.68 -4 8 C-3.34 8 -2.68 8 -2 8 C-1.34 5.36 -0.68 2.72 0 0 Z " fill="#887377" transform="translate(108,63)"/>
<path d="M0 0 C0.66 0 1.32 0 2 0 C2.12 6.75 2.12 6.75 1 9 C0.01 9 -0.98 9 -2 9 C-1.34 6.03 -0.68 3.06 0 0 Z " fill="#207D96" transform="translate(79,69)"/>
<path d="M0 0 C1 3 1 3 0.06 5.19 C-0.46 6.08 -0.46 6.08 -1 7 C-2.32 6.34 -3.64 5.68 -5 5 C-5 4.01 -5 3.02 -5 2 C-3.35 1.34 -1.7 0.68 0 0 Z " fill="#D6CACA" transform="translate(68,96)"/>
<path d="M0 0 C0.66 0.33 1.32 0.66 2 1 C1.67 2.32 1.34 3.64 1 5 C-0.32 5 -1.64 5 -3 5 C-2.67 5.99 -2.34 6.98 -2 8 C-2.99 8.5 -2.99 8.5 -4 9 C-4.25 6.75 -4.25 6.75 -4 4 C-2 1.69 -2 1.69 0 0 Z M-2 6 C0 7 0 7 0 7 Z " fill="#EBE7E7" transform="translate(112,77)"/>
<path d="M0 0 C-0.71 0.62 -0.71 0.62 -1.44 1.25 C-3.16 3.18 -3.57 4.48 -4 7 C-4.33 6.01 -4.66 5.02 -5 4 C-5.99 4 -6.98 4 -8 4 C-8.33 3.01 -8.66 2.02 -9 1 C-5.8 -0.07 -3.34 -0.07 0 0 Z " fill="#8A7475" transform="translate(94,59)"/>
<path d="M0 0 C1.32 0.66 2.64 1.32 4 2 C2.68 4.64 1.36 7.28 0 10 C-0.66 9.67 -1.32 9.34 -2 9 C-1.67 8.67 -1.34 8.34 -1 8 C-0.77 6.65 -0.59 5.3 -0.44 3.94 C-0.29 2.64 -0.15 1.34 0 0 Z " fill="#32AABC" transform="translate(76,77)"/>
<path d="M0 0 C1.28 3.85 1.07 6.95 1 11 C0.01 11 -0.98 11 -2 11 C-3.14 7.59 -2.87 7 -1.56 3.81 C-1.13 2.74 -1.13 2.74 -0.69 1.64 C-0.35 0.83 -0.35 0.83 0 0 Z " fill="#46C6DB" transform="translate(81,74)"/>
<path d="M0 0 C1.65 0 3.3 0 5 0 C3.36 1.8 2.1 2.96 -0.12 4 C-2.35 4.91 -2.35 4.91 -3 8 C-3.66 8 -4.32 8 -5 8 C-4.34 6.02 -3.68 4.04 -3 2 C-2.01 2 -1.02 2 0 2 C0 1.34 0 0.68 0 0 Z " fill="#2A0A07" transform="translate(53,39)"/>
<path d="M0 0 C3 1 3 1 4 3 C4.99 3.33 5.98 3.66 7 4 C6.34 5.32 5.68 6.64 5 8 C5 7.34 5 6.68 5 6 C4.01 6 3.02 6 2 6 C1.67 5.01 1.34 4.02 1 3 C0.34 2.67 -0.32 2.34 -1 2 C-0.67 1.34 -0.34 0.68 0 0 Z " fill="#DECCCE" transform="translate(52,72)"/>
<path d="M0 0 C0.69 1.62 0.69 1.62 1 4 C-0.44 7.25 -0.44 7.25 -2 10 C-3.1 6.69 -2.99 4.34 -2 1 C-1.34 0.67 -0.68 0.34 0 0 Z " fill="#2DBDD7" transform="translate(76,86)"/>
<path d="M0 0 C0.99 0 1.98 0 3 0 C4.38 2.27 5.06 3.5 4.75 6.19 C4 8 4 8 2 9 C1.86 7.89 1.71 6.77 1.56 5.62 C1.22 2.18 1.22 2.18 0 0 Z " fill="#BAAEB0" transform="translate(96,72)"/>
<path d="M0 0 C0.33 0 0.66 0 1 0 C2.12 7.62 2.12 7.62 1 11 C0.34 11 -0.32 11 -1 11 C-1.03 9.35 -1.05 7.71 -1.06 6.06 C-1.07 5.15 -1.09 4.23 -1.1 3.29 C-1 1 -1 1 0 0 Z " fill="#30B2C5" transform="translate(82,72)"/>
<path d="M0 0 C0.33 0.66 0.66 1.32 1 2 C1.66 2 2.32 2 3 2 C2.67 3.32 2.34 4.64 2 6 C1.34 6 0.68 6 0 6 C-0.33 6.99 -0.66 7.98 -1 9 C-1.12 2.25 -1.12 2.25 0 0 Z " fill="#CBB4BC" transform="translate(34,72)"/>
<path d="M0 0 C6.62 -0.25 6.62 -0.25 10 2 C10 2.66 10 3.32 10 4 C8.68 4.33 7.36 4.66 6 5 C5.34 4.01 4.68 3.02 4 2 C1.95 0.81 1.95 0.81 0 0 Z " fill="#BDB9B9" transform="translate(110,71)"/>
<path d="M0 0 C3.3 0.66 6.6 1.32 10 2 C8.68 2.99 7.36 3.98 6 5 C3.69 4.01 1.38 3.02 -1 2 C-0.67 1.34 -0.34 0.68 0 0 Z " fill="#5B4448" transform="translate(51,65)"/>
<path d="M0 0 C0.33 0 0.66 0 1 0 C1.29 7.43 1.29 7.43 -1 11 C-1.66 9.35 -2.32 7.7 -3 6 C-2.34 6 -1.68 6 -1 6 C-1 5.34 -1 4.68 -1 4 C-1.66 3.67 -2.32 3.34 -3 3 C-2.01 3 -1.02 3 0 3 C0 2.01 0 1.02 0 0 Z " fill="#4A6164" transform="translate(77,61)"/>
<path d="M0 0 C0.99 0.66 1.98 1.32 3 2 C3 3.32 3 4.64 3 6 C1.35 6 -0.3 6 -2 6 C-2.33 5.01 -2.66 4.02 -3 3 C-2.01 3 -1.02 3 0 3 C0 2.01 0 1.02 0 0 Z " fill="#D5D1D2" transform="translate(119,77)"/>
<path d="M0 0 C0.33 0 0.66 0 1 0 C1 1.65 1 3.3 1 5 C2.98 5.5 2.98 5.5 5 6 C5 6.66 5 7.32 5 8 C3.35 8 1.7 8 0 8 C0 5.36 0 2.72 0 0 Z " fill="#BBA4A7" transform="translate(68,67)"/>
<path d="M0 0 C1.98 0 3.96 0 6 0 C6 1.32 6 2.64 6 4 C5.01 3.67 4.02 3.34 3 3 C2.67 3.33 2.34 3.66 2 4 C1.01 3.34 0.02 2.68 -1 2 C-0.67 1.34 -0.34 0.68 0 0 Z " fill="#80686A" transform="translate(37,56)"/>
<path d="M0 0 C2.88 -0.19 2.88 -0.19 6 0 C6.66 0.99 7.32 1.98 8 3 C4.38 4.21 3.36 3.54 0 2 C0 1.34 0 0.68 0 0 Z " fill="#846A6B" transform="translate(85,95)"/>
<path d="M0 0 C-0.66 1.65 -1.32 3.3 -2 5 C-2.99 5 -3.98 5 -5 5 C-5.33 4.01 -5.66 3.02 -6 2 C-3 0 -3 0 0 0 Z " fill="#E4DFE0" transform="translate(66,82)"/>
<path d="M0 0 C0.99 0.66 1.98 1.32 3 2 C2.67 3.32 2.34 4.64 2 6 C0.68 6 -0.64 6 -2 6 C-2 5.34 -2 4.68 -2 4 C-1.34 4 -0.68 4 0 4 C0 2.68 0 1.36 0 0 Z " fill="#735D63" transform="translate(105,80)"/>
<path d="M0 0 C0.99 0.33 1.98 0.66 3 1 C2.67 2.98 2.34 4.96 2 7 C1.67 6.34 1.34 5.68 1 5 C0.34 5 -0.32 5 -1 5 C-0.67 3.35 -0.34 1.7 0 0 Z " fill="#D1C2C5" transform="translate(103,77)"/>
<path d="M0 0 C0.66 1.32 1.32 2.64 2 4 C-1.77 4 -2.91 3.76 -6 2 C-4.02 1.34 -2.04 0.68 0 0 Z " fill="#856E72" transform="translate(48,47)"/>
<path d="M0 0 C1.32 0 2.64 0 4 0 C3.34 1.32 2.68 2.64 2 4 C0.68 4 -0.64 4 -2 4 C-2 3.34 -2 2.68 -2 2 C-1.34 2 -0.68 2 0 2 C0 1.34 0 0.68 0 0 Z " fill="#EBE2E0" transform="translate(86,98)"/>
<path d="M0 0 C0.66 0 1.32 0 2 0 C2 1.98 2 3.96 2 6 C1.01 6 0.02 6 -1 6 C-1.04 4.33 -1.04 2.67 -1 1 C-0.67 0.67 -0.34 0.34 0 0 Z " fill="#40C5E6" transform="translate(74,95)"/>
<path d="M0 0 C7.43 1 7.43 1 11 2 C8.59 3.2 7.05 3.1 4.38 3.06 C3.15 3.05 3.15 3.05 1.9 3.04 C0.96 3.02 0.96 3.02 0 3 C0 2.01 0 1.02 0 0 Z " fill="#C6BBBA" transform="translate(36,69)"/>
<path d="M0 0 C0.66 0 1.32 0 2 0 C1.67 1.65 1.34 3.3 1 5 C-0.98 5.33 -2.96 5.66 -5 6 C-3.62 4.5 -3.62 4.5 -2 3 C-1.34 3 -0.68 3 0 3 C0 2.01 0 1.02 0 0 Z " fill="#715C5D" transform="translate(46,65)"/>
<path d="M0 0 C0.66 0 1.32 0 2 0 C2 1.32 2 2.64 2 4 C2.99 4.33 3.98 4.66 5 5 C5 5.66 5 6.32 5 7 C2.52 6.01 2.52 6.01 0 5 C0 3.35 0 1.7 0 0 Z " fill="#8B7B79" transform="translate(38,61)"/>
<path d="M0 0 C1.32 0.33 2.64 0.66 4 1 C2.35 2.65 0.7 4.3 -1 6 C-1 5.34 -1 4.68 -1 4 C-1.66 4 -2.32 4 -3 4 C-2.67 3.34 -2.34 2.68 -2 2 C-1.34 2.33 -0.68 2.66 0 3 C0 2.01 0 1.02 0 0 Z " fill="#DECBC8" transform="translate(54,46)"/>
</svg>
